<svg xmlns="http://www.w3.org/2000/svg" width="92" height="32" viewBox="0 0 92 32">
<path d="M16 16L32 0V32L16 16Z" fill="#4F46E5"/>
<path d="M24 -4L8 12V-20L24 -4Z" fill="#4F46E5"/>
<path d="M24 36L8 52V20L24 36Z" fill="#4F46E5"/>
<path d="M37.1378 22V8.90909H39.9055V14.6811H40.0781L44.7891 8.90909H48.1065L43.2486 14.7706L48.1641 22H44.853L41.267 16.6179L39.9055 18.2798V22H37.1378ZM50.112 22V12.1818H52.835V22H50.112ZM51.4799 10.9162C51.0751 10.9162 50.7278 10.782 50.438 10.5135C50.1525 10.2408 50.0098 9.91477 50.0098 9.53551C50.0098 9.16051 50.1525 8.83878 50.438 8.57031C50.7278 8.29758 51.0751 8.16122 51.4799 8.16122C51.8848 8.16122 52.2299 8.29758 52.5154 8.57031C52.8052 8.83878 52.9501 9.16051 52.9501 9.53551C52.9501 9.91477 52.8052 10.2408 52.5154 10.5135C52.2299 10.782 51.8848 10.9162 51.4799 10.9162ZM57.7393 16.3239V22H55.0163V12.1818H57.6115V13.9141H57.7266C57.9439 13.343 58.3082 12.8913 58.8196 12.5589C59.331 12.2223 59.951 12.054 60.6797 12.054C61.3615 12.054 61.956 12.2031 62.4631 12.5014C62.9702 12.7997 63.3643 13.2259 63.6456 13.7798C63.9268 14.3295 64.0675 14.9858 64.0675 15.7486V22H61.3445V16.2344C61.3487 15.6335 61.1953 15.1648 60.8842 14.8281C60.5732 14.4872 60.1449 14.3168 59.5994 14.3168C59.233 14.3168 58.9091 14.3956 58.6278 14.5533C58.3509 14.7109 58.1335 14.9411 57.9759 15.2436C57.8224 15.5419 57.7436 15.902 57.7393 16.3239ZM66.2136 25.6818V12.1818H68.8983V13.831H69.0197C69.139 13.5668 69.3116 13.2983 69.5375 13.0256C69.7676 12.7486 70.0659 12.5185 70.4324 12.3352C70.8031 12.1477 71.2633 12.054 71.813 12.054C72.5289 12.054 73.1895 12.2415 73.7946 12.6165C74.3997 12.9872 74.8833 13.5476 75.2456 14.2976C75.6078 15.0433 75.7889 15.9787 75.7889 17.1037C75.7889 18.1989 75.612 19.1236 75.2583 19.8778C74.9089 20.6278 74.4316 21.1967 73.8265 21.5845C73.2257 21.968 72.5524 22.1598 71.8066 22.1598C71.2782 22.1598 70.8287 22.0724 70.4579 21.8977C70.0914 21.723 69.791 21.5036 69.5566 21.2393C69.3223 20.9709 69.1433 20.7003 69.0197 20.4276H68.9366V25.6818H66.2136ZM68.8791 17.0909C68.8791 17.6747 68.96 18.1839 69.122 18.6186C69.2839 19.0533 69.5183 19.392 69.8251 19.6349C70.1319 19.8736 70.5048 19.9929 70.9437 19.9929C71.3869 19.9929 71.7619 19.8714 72.0687 19.6286C72.3755 19.3814 72.6078 19.0405 72.7654 18.6058C72.9274 18.1669 73.0083 17.6619 73.0083 17.0909C73.0083 16.5241 72.9295 16.0256 72.7718 15.5952C72.6142 15.1648 72.3819 14.8281 72.0751 14.5852C71.7683 14.3423 71.3912 14.2209 70.9437 14.2209C70.5005 14.2209 70.1255 14.3381 69.8187 14.5724C69.5162 14.8068 69.2839 15.1392 69.122 15.5696C68.96 16 68.8791 16.5071 68.8791 17.0909ZM80.4039 22.1854C79.7775 22.1854 79.2193 22.0767 78.7292 21.8594C78.2392 21.6378 77.8514 21.3118 77.5659 20.8814C77.2846 20.4467 77.144 19.9055 77.144 19.2578C77.144 18.7124 77.2441 18.2543 77.4444 17.8835C77.6447 17.5128 77.9174 17.2145 78.2626 16.9886C78.6078 16.7628 78.9998 16.5923 79.4387 16.4773C79.8819 16.3622 80.3464 16.2812 80.8322 16.2344C81.4032 16.1747 81.8635 16.1193 82.2129 16.0682C82.5623 16.0128 82.8159 15.9318 82.9735 15.8253C83.1312 15.7187 83.2101 15.5611 83.2101 15.3523V15.3139C83.2101 14.9091 83.0822 14.5959 82.8265 14.3743C82.5751 14.1527 82.2172 14.0419 81.7527 14.0419C81.2626 14.0419 80.8727 14.1506 80.5829 14.3679C80.2931 14.581 80.1014 14.8494 80.0076 15.1733L77.4892 14.9688C77.617 14.3722 77.8684 13.8565 78.2434 13.4219C78.6184 12.983 79.1021 12.6463 79.6944 12.4119C80.291 12.1733 80.9814 12.054 81.7654 12.054C82.3109 12.054 82.8329 12.1179 83.3315 12.2457C83.8343 12.3736 84.2797 12.5717 84.6674 12.8402C85.0595 13.1087 85.3684 13.4538 85.5943 13.8757C85.8201 14.2933 85.9331 14.794 85.9331 15.3778V22H83.3507V20.6385H83.274C83.1163 20.9453 82.9054 21.2159 82.6412 21.4503C82.377 21.6804 82.0595 21.8615 81.6887 21.9936C81.318 22.1214 80.8897 22.1854 80.4039 22.1854ZM81.1838 20.3061C81.5843 20.3061 81.938 20.2273 82.2449 20.0696C82.5517 19.9077 82.7924 19.6903 82.9672 19.4176C83.1419 19.1449 83.2292 18.8359 83.2292 18.4908V17.4489C83.144 17.5043 83.0268 17.5554 82.8777 17.6023C82.7328 17.6449 82.5687 17.6854 82.3855 17.7237C82.2022 17.7578 82.019 17.7898 81.8358 17.8196C81.6525 17.8452 81.4863 17.8686 81.3372 17.8899C81.0176 17.9368 80.7385 18.0114 80.4998 18.1136C80.2612 18.2159 80.0758 18.3544 79.9437 18.5291C79.8116 18.6996 79.7456 18.9126 79.7456 19.1683C79.7456 19.5391 79.8798 19.8224 80.1483 20.0185C80.421 20.2102 80.7662 20.3061 81.1838 20.3061ZM90.7686 8.90909V22H88.0456V8.90909H90.7686Z" fill="#4F46E5"/>
</svg>