<svg xmlns="http://www.w3.org/2000/svg" viewBox="0 0 92 32">
<path d="M16 16L32 0V32L16 16Z" fill="#4F46E5"/>
<path d="M24 -4L8 12V-20L24 -4Z" fill="#4F46E5"/>
<path d="M24 36L8 52V20L24 36Z" fill="#4F46E5"/>
<path d="M37.1378 23V9.90909H39.9055V15.6811H40.0781L44.7891 9.90909H48.1065L43.2486 15.7706L48.1641 23H44.853L41.267 17.6179L39.9055 19.2798V23H37.1378ZM50.112 23V13.1818H52.835V23H50.112ZM51.4799 11.9162C51.0751 11.9162 50.7278 11.782 50.438 11.5135C50.1525 11.2408 50.0098 10.9148 50.0098 10.5355C50.0098 10.1605 50.1525 9.83878 50.438 9.57031C50.7278 9.29758 51.0751 9.16122 51.4799 9.16122C51.8848 9.16122 52.2299 9.29758 52.5154 9.57031C52.8052 9.83878 52.9501 10.1605 52.9501 10.5355C52.9501 10.9148 52.8052 11.2408 52.5154 11.5135C52.2299 11.782 51.8848 11.9162 51.4799 11.9162ZM57.7393 17.3239V23H55.0163V13.1818H57.6115V14.9141H57.7266C57.9439 14.343 58.3082 13.8913 58.8196 13.5589C59.331 13.2223 59.951 13.054 60.6797 13.054C61.3615 13.054 61.956 13.2031 62.4631 13.5014C62.9702 13.7997 63.3643 14.2259 63.6456 14.7798C63.9268 15.3295 64.0675 15.9858 64.0675 16.7486V23H61.3445V17.2344C61.3487 16.6335 61.1953 16.1648 60.8842 15.8281C60.5732 15.4872 60.1449 15.3168 59.5994 15.3168C59.233 15.3168 58.9091 15.3956 58.6278 15.5533C58.3509 15.7109 58.1335 15.9411 57.9759 16.2436C57.8224 16.5419 57.7436 16.902 57.7393 17.3239ZM66.2136 26.6818V13.1818H68.8983V14.831H69.0197C69.139 14.5668 69.3116 14.2983 69.5375 14.0256C69.7676 13.7486 70.0659 13.5185 70.4324 13.3352C70.8031 13.1477 71.2633 13.054 71.813 13.054C72.5289 13.054 73.1895 13.2415 73.7946 13.6165C74.3997 13.9872 74.8833 14.5476 75.2456 15.2976C75.6078 16.0433 75.7889 16.9787 75.7889 18.1037C75.7889 19.1989 75.612 20.1236 75.2583 20.8778C74.9089 21.6278 74.4316 22.1967 73.8265 22.5845C73.2257 22.968 72.5524 23.1598 71.8066 23.1598C71.2782 23.1598 70.8287 23.0724 70.4579 22.8977C70.0914 22.723 69.791 22.5036 69.5566 22.2393C69.3223 21.9709 69.1433 21.7003 69.0197 21.4276H68.9366V26.6818H66.2136ZM68.8791 18.0909C68.8791 18.6747 68.96 19.1839 69.122 19.6186C69.2839 20.0533 69.5183 20.392 69.8251 20.6349C70.1319 20.8736 70.5048 20.9929 70.9437 20.9929C71.3869 20.9929 71.7619 20.8714 72.0687 20.6286C72.3755 20.3814 72.6078 20.0405 72.7654 19.6058C72.9274 19.1669 73.0083 18.6619 73.0083 18.0909C73.0083 17.5241 72.9295 17.0256 72.7718 16.5952C72.6142 16.1648 72.3819 15.8281 72.0751 15.5852C71.7683 15.3423 71.3912 15.2209 70.9437 15.2209C70.5005 15.2209 70.1255 15.3381 69.8187 15.5724C69.5162 15.8068 69.2839 16.1392 69.122 16.5696C68.96 17 68.8791 17.5071 68.8791 18.0909ZM80.4039 23.1854C79.7775 23.1854 79.2193 23.0767 78.7292 22.8594C78.2392 22.6378 77.8514 22.3118 77.5659 21.8814C77.2846 21.4467 77.144 20.9055 77.144 20.2578C77.144 19.7124 77.2441 19.2543 77.4444 18.8835C77.6447 18.5128 77.9174 18.2145 78.2626 17.9886C78.6078 17.7628 78.9998 17.5923 79.4387 17.4773C79.8819 17.3622 80.3464 17.2812 80.8322 17.2344C81.4032 17.1747 81.8635 17.1193 82.2129 17.0682C82.5623 17.0128 82.8159 16.9318 82.9735 16.8253C83.1312 16.7187 83.2101 16.5611 83.2101 16.3523V16.3139C83.2101 15.9091 83.0822 15.5959 82.8265 15.3743C82.5751 15.1527 82.2172 15.0419 81.7527 15.0419C81.2626 15.0419 80.8727 15.1506 80.5829 15.3679C80.2931 15.581 80.1014 15.8494 80.0076 16.1733L77.4892 15.9688C77.617 15.3722 77.8684 14.8565 78.2434 14.4219C78.6184 13.983 79.1021 13.6463 79.6944 13.4119C80.291 13.1733 80.9814 13.054 81.7654 13.054C82.3109 13.054 82.8329 13.1179 83.3315 13.2457C83.8343 13.3736 84.2797 13.5717 84.6674 13.8402C85.0595 14.1087 85.3684 14.4538 85.5943 14.8757C85.8201 15.2933 85.9331 15.794 85.9331 16.3778V23H83.3507V21.6385H83.274C83.1163 21.9453 82.9054 22.2159 82.6412 22.4503C82.377 22.6804 82.0595 22.8615 81.6887 22.9936C81.318 23.1214 80.8897 23.1854 80.4039 23.1854ZM81.1838 21.3061C81.5843 21.3061 81.938 21.2273 82.2449 21.0696C82.5517 20.9077 82.7924 20.6903 82.9672 20.4176C83.1419 20.1449 83.2292 19.8359 83.2292 19.4908V18.4489C83.144 18.5043 83.0268 18.5554 82.8777 18.6023C82.7328 18.6449 82.5687 18.6854 82.3855 18.7237C82.2022 18.7578 82.019 18.7898 81.8358 18.8196C81.6525 18.8452 81.4863 18.8686 81.3372 18.8899C81.0176 18.9368 80.7385 19.0114 80.4998 19.1136C80.2612 19.2159 80.0758 19.3544 79.9437 19.5291C79.8116 19.6996 79.7456 19.9126 79.7456 20.1683C79.7456 20.5391 79.8798 20.8224 80.1483 21.0185C80.421 21.2102 80.7662 21.3061 81.1838 21.3061ZM90.7686 9.90909V23H88.0456V9.90909H90.7686Z" fill="#4F46E5"/></svg>